<?xml version="1.0" standalone="no"?>
<!DOCTYPE svg PUBLIC "-//W3C//DTD SVG 20010904//EN"
 "http://www.w3.org/TR/2001/REC-SVG-20010904/DTD/svg10.dtd">
<svg version="1.0" xmlns="http://www.w3.org/2000/svg"
 width="664.000000pt" height="181.000000pt" viewBox="0 0 664.000000 181.000000"
 preserveAspectRatio="xMidYMid meet">

<g transform="translate(0.000000,181.000000) scale(0.100000,-0.100000)"
fill="#000000" stroke="none">
<path d="M888 1429 c-133 -73 -240 -185 -311 -327 l-41 -83 19 -35 c10 -19 21
-34 25 -34 4 0 21 23 39 50 68 105 220 233 346 291 28 13 52 25 54 26 9 6 -51
143 -62 143 -7 0 -38 -14 -69 -31z"/>
<path d="M889 1232 c-14 -9 -28 -20 -30 -24 -2 -3 27 -30 64 -58 81 -62 182
-185 238 -292 22 -43 44 -78 49 -78 20 0 130 53 130 63 0 20 -70 133 -114 185
-67 78 -140 136 -227 182 -42 22 -79 40 -81 39 -1 0 -15 -8 -29 -17z"/>
<path d="M1773 1191 c-49 -23 -73 -62 -73 -120 0 -57 34 -93 127 -131 99 -41
118 -54 133 -90 28 -68 -33 -126 -124 -117 -44 4 -55 10 -86 45 -28 32 -40 38
-53 31 -24 -14 -22 -24 19 -69 73 -81 209 -81 277 -1 22 26 27 43 27 83 0 46
-4 55 -38 87 -21 20 -69 48 -107 64 -88 35 -113 54 -121 94 -5 27 -1 37 24 63
48 47 120 40 168 -17 16 -19 27 -23 43 -18 l22 7 -20 31 c-25 40 -93 77 -140
77 -20 0 -55 -9 -78 -19z"/>
<path d="M2755 1201 c-74 -19 -151 -85 -180 -153 -21 -52 -19 -163 4 -213 38
-83 145 -155 232 -155 130 0 239 104 239 229 l0 31 -100 0 c-93 0 -100 -1
-100 -20 0 -18 7 -20 69 -20 39 0 72 -4 76 -9 10 -17 -26 -90 -57 -116 -114
-96 -298 -16 -323 141 -19 119 79 235 199 236 36 0 69 -6 95 -19 40 -20 41
-20 58 -1 19 21 18 23 -39 53 -33 18 -131 27 -173 16z"/>
<path d="M3325 1201 c-73 -19 -146 -79 -176 -145 -25 -55 -25 -167 0 -221 44
-95 157 -162 258 -152 66 7 145 49 185 99 33 42 58 113 58 163 0 49 -29 129
-60 167 -58 70 -181 111 -265 89z m160 -75 c21 -11 53 -41 70 -64 27 -39 30
-52 30 -117 0 -65 -3 -78 -30 -117 -119 -169 -370 -90 -370 117 0 162 158 257
300 181z"/>
<path d="M2100 1023 c0 -194 7 -236 47 -284 67 -79 204 -80 274 -3 43 47 49
83 49 280 l0 184 -24 0 -24 0 -4 -187 c-2 -157 -6 -193 -21 -220 -21 -40 -64
-63 -114 -63 -47 1 -78 18 -104 56 -17 26 -19 48 -19 222 l0 192 -30 0 -30 0
0 -177z"/>
<path d="M3730 945 l0 -255 30 0 30 0 0 255 0 255 -30 0 -30 0 0 -255z"/>
<path d="M4196 952 c-60 -136 -111 -250 -113 -254 -2 -5 9 -8 25 -8 26 0 32 6
55 60 l26 60 141 0 141 0 26 -60 c24 -54 29 -60 55 -60 17 0 28 4 26 8 -1 5
-52 119 -113 255 -101 227 -112 247 -135 247 -23 0 -34 -19 -134 -248z m196
38 l56 -130 -118 0 -118 0 56 130 c32 71 59 130 62 130 3 0 31 -58 62 -130z"/>
<path d="M4650 945 l0 -255 25 0 25 0 0 201 c0 114 4 199 9 197 5 -1 77 -92
161 -200 123 -160 157 -198 176 -198 l24 0 0 255 0 255 -30 0 -30 0 -2 -202
-3 -202 -155 202 c-120 157 -160 202 -177 202 l-23 0 0 -255z"/>
<path d="M5160 945 l0 -255 30 0 30 0 0 255 0 255 -30 0 -30 0 0 -255z"/>
<path d="M5310 946 l0 -256 30 0 30 0 1 188 1 187 91 -187 c122 -250 113 -249
227 -7 47 99 88 183 93 185 4 3 7 -78 7 -180 l0 -186 30 0 30 0 0 256 0 255
-32 -3 c-31 -3 -34 -9 -132 -215 -56 -117 -103 -212 -106 -212 -3 -1 -51 95
-107 212 -98 202 -104 212 -133 215 l-30 3 0 -255z"/>
<path d="M5940 945 l0 -255 150 0 150 0 0 25 0 25 -120 0 -120 0 0 90 0 90 90
0 c89 0 90 0 90 25 0 25 -1 25 -90 25 l-90 0 0 90 0 90 120 0 120 0 0 25 0 25
-150 0 -150 0 0 -255z"/>
<path d="M385 1103 c-33 -14 -62 -27 -64 -29 -7 -6 21 -64 61 -126 75 -115
168 -199 289 -259 94 -47 112 -50 149 -28 l32 20 -63 40 c-117 76 -225 201
-298 347 -17 34 -35 62 -39 61 -4 0 -34 -12 -67 -26z"/>
<path d="M811 1016 c-28 -16 -50 -52 -51 -84 0 -37 52 -82 95 -82 80 0 114 92
56 151 -32 31 -62 36 -100 15z"/>
<path d="M1063 847 c-23 -29 -72 -78 -110 -109 -70 -57 -218 -148 -240 -148
-17 0 -18 4 16 -76 33 -81 34 -81 133 -23 115 67 210 167 272 282 l25 49 -19
39 c-11 21 -24 39 -28 39 -4 0 -26 -24 -49 -53z"/>
</g>
</svg>
